<svg fill="none" height="24" viewBox="0 0 24 24" width="24" xmlns="http://www.w3.org/2000/svg" xmlns:xlink="http://www.w3.org/1999/xlink"><clipPath id="a"><path d="m0 0h24v24h-24z"/></clipPath><clipPath id="b"><path d="m0 0h24v24h-24z"/></clipPath><g clip-path="url(#a)"><g clip-path="url(#b)"><path clip-rule="evenodd" d="m15.6065 4.12314c.0064-.07974.0097-.16038.0097-.24179 0-1.63609-1.3263-2.962405-2.9624-2.962405s-2.96239 1.326315-2.96239 2.962405c0 .05604.00155.11172.00462.16699l-5.80056 3.7942-.4526.29604v.54083 2.45499h2v-1.91417l5.05543-3.30677c.5401.57277 1.3061.93029 2.1555.93029.8218 0 1.5654-.33462 2.1021-.87504l5.2151 3.64468-.0923 1.68281 1.997.1095.1228-2.23843.0305-.55566-.4562-.31877zm-9.76891 16.45456 6.37571 3.3206.4951.2578.4793-.286 5.5638-3.3206-1.025-1.7174-5.0845 3.0345-5.88056-3.0627zm1.6922-5.3257c0 1.5179-1.23057 2.7485-2.74854 2.7485s-2.74854-1.2306-2.74854-2.7485c0-1.518 1.23057-2.7486 2.74854-2.7486s2.74854 1.2306 2.74854 2.7486zm12.99661 2.7485c1.5179 0 2.7485-1.2306 2.7485-2.7485 0-1.518-1.2306-2.7486-2.7485-2.7486-1.518 0-2.7486 1.2306-2.7486 2.7486 0 1.5179 1.2306 2.7485 2.7486 2.7485z" fill="#01aadd" fill-rule="evenodd"/></g></g></svg>