<svg fill="none" height="24" viewBox="0 0 24 24" width="24" xmlns="http://www.w3.org/2000/svg" xmlns:xlink="http://www.w3.org/1999/xlink"><clipPath id="a"><path d="m0 0h24v24h-24z"/></clipPath><g clip-path="url(#a)"><rect fill="#7f3bf5" height="21.9727" rx="3" width="22.1765" x=".911743" y="1.01367"/><path clip-rule="evenodd" d="m12.0009 14.9346c2.3568 0 4.2674-1.9105 4.2674-4.2673 0-2.35683-1.9106-4.2674-4.2674-4.2674-2.35676 0-4.26733 1.91057-4.26733 4.2674 0 2.3568 1.91057 4.2673 4.26733 4.2673zm7.2098 8.116c0 .0002-.0002.0003-.0004.0003h-14.42064c-.00019 0-.00035-.0001-.00035-.0003 0-3.9824 3.22833-7.2107 7.21069-7.2107 3.9824 0 7.2107 3.2283 7.2107 7.2107z" fill="#fff" fill-rule="evenodd"/></g></svg>