<?xml version="1.0" encoding="UTF-8"?>
<svg width="159px" height="39px" viewBox="0 0 159 39" version="1.1" xmlns="http://www.w3.org/2000/svg" xmlns:xlink="http://www.w3.org/1999/xlink">
    <title>编组 32</title>
    <defs>
        <linearGradient x1="100%" y1="50%" x2="0%" y2="50%" id="linearGradient-1">
            <stop stop-color="#3D70FB" offset="0%"></stop>
            <stop stop-color="#4F49F3" offset="100%"></stop>
        </linearGradient>
        <linearGradient x1="0%" y1="18.9602749%" x2="98.6230131%" y2="41.1040371%" id="linearGradient-2">
            <stop stop-color="#504AF4" offset="0%"></stop>
            <stop stop-color="#3E71FB" offset="100%"></stop>
        </linearGradient>
        <linearGradient x1="0%" y1="21.8052385%" x2="97.8602562%" y2="43.7747143%" id="linearGradient-3">
            <stop stop-color="#504AF4" offset="0%"></stop>
            <stop stop-color="#3E71FB" offset="100%"></stop>
        </linearGradient>
        <linearGradient x1="0%" y1="47.5142667%" x2="13.2665094%" y2="68.2344963%" id="linearGradient-4">
            <stop stop-color="#504AF4" offset="0%"></stop>
            <stop stop-color="#3E71FB" offset="100%"></stop>
        </linearGradient>
        <linearGradient x1="0%" y1="38.0481272%" x2="88.034188%" y2="57.8215208%" id="linearGradient-5">
            <stop stop-color="#504AF4" offset="0%"></stop>
            <stop stop-color="#3E71FB" offset="100%"></stop>
        </linearGradient>
        <linearGradient x1="28.95%" y1="33.4%" x2="70.45%" y2="45.3%" id="linearGradient-6">
            <stop stop-color="#504AF4" offset="0%"></stop>
            <stop stop-color="#3E71FB" offset="100%"></stop>
        </linearGradient>
        <linearGradient x1="48.2409871%" y1="0%" x2="51.986779%" y2="0.833942941%" id="linearGradient-7">
            <stop stop-color="#504AF4" offset="0%"></stop>
            <stop stop-color="#3E71FB" offset="100%"></stop>
        </linearGradient>
        <linearGradient x1="6.12792912e-15%" y1="20.6085306%" x2="98.1893068%" y2="42.6589693%" id="linearGradient-8">
            <stop stop-color="#504AF4" offset="0%"></stop>
            <stop stop-color="#3485FF" offset="100%"></stop>
        </linearGradient>
    </defs>
    <g id="页面-1" stroke="none" stroke-width="1" fill="none" fill-rule="evenodd">
        <g id="画板" transform="translate(-39.000000, -81.000000)">
            <g id="编组-32" transform="translate(39.000000, 81.000000)">
                <g id="ChatGLM备份" transform="translate(56.000000, 8.000000)">
                    <path d="M12.7763529,20.2937799 L12.028712,17.6805629 C11.6299702,17.967245 11.1204667,18.1794999 10.5002016,18.3173278 C9.87993655,18.4551557 9.28736188,18.5240697 8.72247762,18.5240697 C8.46772589,18.5240697 8.22958841,18.4882344 8.00806517,18.4165639 C7.78654193,18.3448934 7.53732828,18.1767434 7.26042423,17.9121138 C6.98352018,17.6474842 6.74538269,17.2974014 6.54601178,16.8618652 C6.34664086,16.426329 6.17772939,15.8005904 6.03927736,14.9846492 C5.90082534,14.1687081 5.83159932,13.214939 5.83159932,12.123342 C5.83159932,10.2929875 5.93682286,8.88989951 6.14726994,7.91407798 C6.35771702,6.93825645 6.66231148,6.28219565 7.06105331,5.94589558 C7.45979514,5.6095955 8.03021749,5.44144547 8.77232035,5.44144547 C8.90523429,5.44144547 9.07137672,5.46901105 9.27074764,5.52414221 L10.1346883,7.49232461 L12.6600532,7.49232461 L12.9092669,3.68827459 C12.8760384,3.64416966 12.8234266,3.58352538 12.7514316,3.50634176 C12.6794365,3.42915814 12.5022179,3.29133024 12.2197758,3.09285806 C11.9373337,2.89438589 11.621663,2.71796618 11.2727639,2.56359893 C10.9238648,2.40923168 10.4475899,2.27140378 9.84393903,2.15011523 C9.2402882,2.02882668 8.59510176,1.9681824 7.90837971,1.9681824 C6.41309783,1.9681824 5.14487728,2.19422016 4.10371804,2.64629567 C3.06255881,3.09837118 2.24569186,3.77372788 1.65311719,4.67236579 C1.06054252,5.57100369 0.636879318,6.61298261 0.382127591,7.79830255 C0.127375864,8.98362248 0,10.3922236 0,12.0241059 C0,13.5567522 0.127375864,14.904709 0.382127591,16.0679765 C0.636879318,17.231244 1.05500444,18.2732229 1.63650294,19.1939133 C2.21800145,20.1146036 3.02379224,20.8147694 4.05387531,21.2944105 C5.08395838,21.7740515 6.32448853,22.0138721 7.77546576,22.0138721 C8.46218781,22.0138721 9.10460521,21.9559844 9.70271796,21.8402089 C10.3008307,21.7244335 10.7798747,21.5810925 11.13985,21.4101859 C11.4998253,21.2392793 11.8099578,21.0683727 12.0702476,20.8974661 C12.3305374,20.7265595 12.5160631,20.585975 12.6268247,20.4757127 L12.7763529,20.2937799 Z M19.6048068,21.6665458 L19.6048068,12.0241059 C19.615883,12.0130797 19.6740329,11.9634617 19.7792564,11.8752518 C19.8844799,11.787042 19.9509369,11.7319108 19.9786273,11.7098583 C20.0063177,11.6878059 20.0672366,11.6437009 20.161384,11.5775435 C20.2555314,11.5113862 20.3275264,11.4672812 20.3773691,11.4452288 C20.4272119,11.4231763 20.4964379,11.3900976 20.5850472,11.3459927 C20.6736565,11.3018877 20.7594967,11.2743222 20.8425679,11.2632959 C20.9256392,11.2522697 21.0114794,11.2467566 21.1000887,11.2467566 C22.0194102,11.2467566 22.4624566,11.7649895 22.4292282,12.8014553 L22.4292282,21.6665458 L27.9119284,21.6665458 L27.9119284,13.2810964 C27.9119284,13.2039128 27.9174665,13.0991636 27.9285426,12.9668488 C27.9285426,12.834534 27.9285426,12.7352979 27.9285426,12.6691405 C27.9285426,10.7285237 27.615641,9.34473158 26.9898379,8.51776418 C26.3640347,7.69079678 25.2924161,7.27731309 23.7749819,7.27731309 C23.3430115,7.27731309 22.9027341,7.36276638 22.4541495,7.53367298 C22.005565,7.70457957 21.6206683,7.90856487 21.2994596,8.14562885 C20.9782509,8.38269284 20.6875017,8.62251338 20.4272119,8.86509049 C20.1669221,9.10766759 19.9703202,9.317166 19.8374062,9.49358571 L19.6380353,9.74167593 L19.6380353,0 L18.5581095,0 L13.2249375,0.826967396 L13.2249375,2.36512675 L14.2217921,2.96054328 L14.2217921,21.6665458 L19.6048068,21.6665458 Z M37.182676,20.1945438 L37.7143318,21.6665458 L42.2666344,21.6665458 L41.8014356,20.3764766 L41.8014356,13.644962 C41.8014356,12.4320765 41.7072882,11.431446 41.5189935,10.6430704 C41.3306987,9.8546948 41.0122591,9.20414712 40.5636745,8.69142733 C40.1150899,8.17870755 39.5308224,7.81484189 38.8108718,7.59983037 C38.0909213,7.38481885 37.1771379,7.27731309 36.0695217,7.27731309 C34.8179154,7.27731309 33.5884614,7.46200247 32.3811598,7.83138124 C31.1738581,8.20076001 30.1936178,8.6280265 29.4404387,9.11318071 L30.5037503,11.362532 C30.9246445,11.1420074 31.506143,10.9518049 32.2482458,10.7919245 C32.9903487,10.6320442 33.7047611,10.552104 34.3914832,10.552104 C35.1889669,10.552104 35.7676963,10.6899319 36.1276716,10.9655877 C36.4876469,11.2412435 36.6676345,11.7153714 36.6676345,12.3879716 L36.6676345,12.6856799 C36.291045,12.6856799 35.8978412,12.7022192 35.4880232,12.7352979 C35.0782052,12.7683766 34.6130064,12.834534 34.0924268,12.9337701 C33.5718472,13.0330062 33.0761889,13.1570513 32.6054521,13.3059054 C32.1347152,13.4547595 31.6667473,13.6587448 31.2015485,13.9178613 C30.7363497,14.1769777 30.3376079,14.4719294 30.005323,14.8027164 C29.6730381,15.1335034 29.4016722,15.5387174 29.1912251,16.0183585 C28.980778,16.4979996 28.8755545,17.0245021 28.8755545,17.5978662 C28.8755545,20.5418701 30.3708364,22.0138721 33.3614001,22.0138721 C33.8044466,22.0138721 34.2364169,21.9504713 34.6573111,21.8236696 C35.0782052,21.6968679 35.4354115,21.5452572 35.7289298,21.3688375 C36.022448,21.1924178 36.2827379,21.0159981 36.5097992,20.8395784 C36.7368605,20.6631587 36.905772,20.5087914 37.0165336,20.3764766 L37.182676,20.1945438 Z M35.8701508,19.1029469 C34.928677,19.1029469 34.4579402,18.4138074 34.4579402,17.0355284 C34.4579402,16.2636921 34.6573111,15.6930846 35.0560529,15.3237059 C35.4547947,14.9543271 35.9919886,14.7696377 36.6676345,14.7696377 L36.6676345,18.7390812 C36.6676345,18.7390812 36.634406,18.7694033 36.567949,18.8300476 C36.5014921,18.8906919 36.4045756,18.9513362 36.2771998,19.0119804 C36.1498239,19.0726247 36.0141409,19.1029469 35.8701508,19.1029469 Z M47.7991774,22.0138721 C48.5523564,22.0138721 49.2363094,21.9311753 49.8510364,21.7657819 C50.4657634,21.6003884 50.9060408,21.4377515 51.1718687,21.2778711 C51.4376966,21.1179907 51.6536817,20.9553538 51.8198242,20.7899603 L51.8198242,18.540609 C51.6979864,18.6398451 51.5429201,18.7170287 51.3546254,18.7721599 C51.1663306,18.8272911 50.9558835,18.8548566 50.7232841,18.8548566 C50.1916284,18.8548566 49.7984246,18.7115156 49.5436729,18.4248336 C49.2889211,18.1381516 49.1615453,17.5537613 49.1615453,16.6716627 L49.1615453,10.5190253 L51.9361239,10.5190253 L51.9361239,7.60810004 L49.211388,7.60810004 L49.211388,3.75443198 L46.2872812,3.75443198 L44.5926284,7.60810004 L42.6321478,8.22005592 L42.6321478,10.5190253 L43.7785305,10.5190253 L43.7785305,16.1424036 C43.7785305,18.2704663 44.0748179,19.7810601 44.6673925,20.6741849 C45.2599672,21.5673097 46.3038955,22.0138721 47.7991774,22.0138721 Z M65.0613759,19.9133749 L65.2607468,21.6665458 L68.2180821,21.6665458 L68.2346963,10.2874744 L60.8413582,10.2874744 L60.8413582,13.6615014 L63.0344383,14.1576818 L63.0344383,15.8446953 C63.0344383,16.4401118 62.9790575,16.9280226 62.8682958,17.3084276 C62.7575342,17.6888326 62.5858537,17.9755146 62.3532543,18.1684737 C62.1206549,18.3614328 61.8714412,18.4937475 61.6056134,18.565418 C61.3397855,18.6370886 61.0130387,18.6729238 60.625373,18.6729238 C59.8389655,18.6729238 59.3156169,18.0940466 59.055327,16.9362923 C58.7950372,15.7785379 58.6648923,14.0033146 58.6648923,11.6106222 C58.6648923,10.4638941 58.7147351,9.49082915 58.8144205,8.69142733 C58.914106,7.89202552 59.0442509,7.25801718 59.2048552,6.78940232 C59.3654596,6.32078746 59.5869828,5.96243493 59.869425,5.71434471 C60.1518671,5.46625449 60.4370783,5.30361757 60.7250585,5.22643394 C61.0130387,5.14925032 61.378552,5.11065851 61.8215985,5.11065851 C62.3643305,5.11065851 62.7575342,5.1768159 63.0012098,5.30913068 L63.9482216,7.50886396 L66.9720139,7.50886396 L67.2212275,3.70481393 C67.1990752,3.68276147 67.1686157,3.64968278 67.1298492,3.60557785 C67.0910826,3.56147292 66.9941662,3.47877618 66.8390999,3.35748763 C66.6840337,3.23619908 66.5151222,3.1231802 66.3323655,3.018431 C66.1496088,2.91368179 65.9003952,2.79239324 65.5847246,2.65456534 C65.269054,2.51673744 64.9340001,2.40096201 64.5795629,2.30723904 C64.2251257,2.21351606 63.7959244,2.13357588 63.291959,2.06741849 C62.7879937,2.0012611 62.2591069,1.9681824 61.7052988,1.9681824 C60.4758448,1.9681824 59.3793048,2.07568816 58.4156787,2.29069969 C57.4520526,2.50571121 56.6324166,2.82822849 55.9567707,3.25825154 C55.2811248,3.68827459 54.7107025,4.1927247 54.2455037,4.77160188 C53.7803049,5.35047905 53.4147915,6.03686199 53.1489636,6.83075069 C52.8831357,7.62463939 52.6920719,8.4571199 52.5757722,9.32819223 C52.4594725,10.1992646 52.4013227,11.1805992 52.4013227,12.2721962 C52.4013227,13.738685 52.5370057,15.0452935 52.8083716,16.1920216 C53.0797376,17.3387497 53.5089389,18.3586762 54.0959755,19.251801 C54.6830121,20.1449258 55.4777267,20.8285522 56.4801194,21.3026801 C57.482512,21.7768081 58.6704304,22.0138721 60.0438745,22.0138721 C61.9822029,22.0138721 63.6547033,21.3137064 65.0613759,19.9133749 Z M69.8961207,21.6665458 L80.3464796,21.6665458 L80.3464796,17.2340005 L75.3954351,17.2340005 L75.3954351,2.28243001 L69.8961207,2.28243001 L69.8961207,21.6665458 Z M86.1116219,21.6665458 L86.6266634,10.2709351 L86.7263489,6.06994069 L89.7833696,19.7314421 L94.1196871,19.7314421 L96.6616663,6.06994069 L96.8610372,10.2709351 L97.7083636,21.6665458 L102.875393,21.6665458 L101.446568,2.28243001 L94.5018147,2.28243001 L93.2059037,8.7989331 L92.5745625,12.073724 L91.9099927,8.78239375 L90.4479393,2.28243001 L82.6558593,2.28243001 L81.1107347,21.6665458 L86.1116219,21.6665458 Z" id="形状结合" fill="url(#linearGradient-1)" fill-rule="nonzero"></path>
                    <polygon id="矩形" fill="#000000" opacity="0.573893229" points="81.842078 15.1026636 102.186124 15.0301743 103 21.7646584 81.0890482 21.7570354"></polygon>
                    <g id="Alpha" transform="translate(83.043931, 16.053512)" fill="#FFFFFF" fill-rule="nonzero">
                        <path d="M2.71563373,1.03615928 L1.88512438,2.54425878 L2.89491828,2.54425878 L2.71563373,1.03615928 Z M2.21469158,0.303201824 L3.45650079,0.303201824 L4.0602679,4.04972175 L3.06629323,4.04972175 L2.96874134,3.25085086 L1.50018989,3.25085086 L1.0519785,4.04972175 L0,4.04972175 L2.21469158,0.303201824 Z" id="形状"></path>
                        <polygon id="路径" points="5.63503415 0 6.59473383 0 5.73785911 4.04972175 4.77552289 4.04972175"></polygon>
                        <path d="M8.01394436,3.58569113 L7.67383101,5.17815984 L6.70094863,5.17815984 L7.53673105,1.24708228 L8.40678846,1.24708228 L8.29869042,1.73747828 C8.43403268,1.55819372 8.58695186,1.42285146 8.75744796,1.33145149 C8.92794406,1.24005152 9.11338053,1.19435153 9.31375739,1.19435153 C9.64596113,1.19435153 9.91005431,1.30596496 10.1060369,1.52919181 C10.3020196,1.75241866 10.4000109,2.05474164 10.4000109,2.43616074 C10.4000109,2.93710289 10.2637898,3.34400852 9.99134755,3.65687765 C9.71890534,3.96974678 9.3656093,4.12618134 8.93145944,4.12618134 C8.7275672,4.12618134 8.54696437,4.07960251 8.38965096,3.98644485 C8.23233755,3.89328719 8.10710202,3.75970262 8.01394436,3.58569113 Z M9.40603621,2.47307227 C9.40603621,2.30257617 9.36253334,2.16723391 9.2755276,2.06704548 C9.18852186,1.96685705 9.07207478,1.91676283 8.92618636,1.91676283 C8.72932489,1.91676283 8.55838937,2.00640511 8.4133798,2.18568967 C8.26837023,2.36497423 8.19586545,2.57765493 8.19586545,2.82373177 C8.19586545,3.00301633 8.24244428,3.14582878 8.33560194,3.25216913 C8.4287596,3.35850948 8.55355572,3.41167965 8.70999028,3.41167965 C8.90157868,3.41167965 9.06548343,3.32027968 9.20170454,3.13747974 C9.33792565,2.9546798 9.40603621,2.73321064 9.40603621,2.47307227 Z" id="形状"></path>
                        <path d="M11.8482233,0 L12.8158326,0 L12.4757193,1.61356101 C12.6163346,1.47646106 12.7631019,1.37407551 12.916021,1.30640438 C13.0689402,1.23873325 13.2315267,1.20489768 13.4037805,1.20489768 C13.6920419,1.20489768 13.9152688,1.28970631 14.0734611,1.45932356 C14.2316533,1.62894081 14.3107494,1.86754747 14.3107494,2.17514352 C14.3107494,2.26830118 14.3024004,2.37903576 14.2857023,2.50734726 C14.2690043,2.63565875 14.2430783,2.78066832 14.2079245,2.94237596 L13.9759092,4.04972175 L13.0056633,4.04972175 L13.3009555,2.6576299 C13.3115017,2.60489915 13.3198507,2.55568378 13.3260026,2.50998379 C13.3321546,2.46428381 13.3352305,2.42122036 13.3352305,2.38079345 C13.3352305,2.25072426 13.3040315,2.15009641 13.2416334,2.0789099 C13.1792354,2.00772338 13.0926691,1.97213012 12.9819345,1.97213012 C12.7903461,1.97213012 12.6299567,2.04771087 12.5007664,2.19887236 C12.371576,2.35003385 12.2753424,2.57677608 12.2120655,2.87909906 L11.9615944,4.04972175 L10.9913486,4.04972175 L11.8482233,0 Z" id="路径"></path>
                        <path d="M17.0244999,2.78154717 C16.9893461,2.77803178 16.952874,2.77539525 16.9150836,2.77363755 C16.8772932,2.77187986 16.8214865,2.77100102 16.7476635,2.77100102 C16.4910405,2.77100102 16.2954973,2.80747312 16.1610339,2.88041733 C16.0265704,2.95336153 15.9593387,3.06014131 15.9593387,3.20075664 C15.9593387,3.29391431 15.9922955,3.36949505 16.0582089,3.42749888 C16.1241223,3.48550271 16.2098098,3.51450462 16.3152713,3.51450462 C16.4927982,3.51450462 16.6470356,3.44771233 16.7779837,3.31412776 C16.9089317,3.18054319 16.9911038,3.00301633 17.0244999,2.78154717 Z M17.9683804,2.56007801 L17.8075516,3.34840275 C17.7723978,3.51011039 17.7464718,3.64281612 17.7297737,3.74651993 C17.7130757,3.85022374 17.7012112,3.95129101 17.6941805,4.04972175 L16.8900365,4.04972175 L16.9427673,3.62787574 C16.8355481,3.78606799 16.7010846,3.90603045 16.539377,3.98776312 C16.3776694,4.06949578 16.191354,4.11036212 15.980431,4.11036212 C15.6992004,4.11036212 15.4742158,4.03478137 15.3054774,3.88361988 C15.136739,3.73245839 15.0523698,3.53208154 15.0523698,3.28248931 C15.0523698,2.96434711 15.1956217,2.71651257 15.4821254,2.53898571 C15.7686292,2.36145884 16.1711406,2.27269541 16.6896596,2.27269541 C16.7511789,2.27269541 16.81885,2.27489252 16.892673,2.27928675 C16.9664961,2.28368098 17.0482288,2.29027233 17.137871,2.29906079 C17.1396287,2.28851464 17.140947,2.27665022 17.1418258,2.26346753 C17.1427047,2.25028484 17.1431441,2.2322685 17.1431441,2.20941851 C17.1431441,2.06704548 17.0974441,1.95938686 17.0060442,1.88644265 C16.9146442,1.81349845 16.7819385,1.77702634 16.607927,1.77702634 C16.4462193,1.77702634 16.2897848,1.79460326 16.1386233,1.82975709 C15.9874618,1.86491093 15.8415734,1.91764168 15.700958,1.98794935 L15.8143292,1.3393611 C15.9672483,1.28487266 16.1197281,1.24400632 16.2717684,1.2167621 C16.4238088,1.18951788 16.5789251,1.17589577 16.7371173,1.17589577 C17.1431441,1.17589577 17.4599681,1.25455247 17.6875891,1.41186588 C17.9152102,1.56917929 18.0290207,1.7858148 18.0290207,2.0617724 C18.0290207,2.1250493 18.0237477,2.19887236 18.0132015,2.28324156 C18.0026554,2.36761076 17.987715,2.45988958 17.9683804,2.56007801 Z" id="形状"></path>
                    </g>
                </g>
                <g id="logo.ae7cdb36">
                    <path d="M26.0260907,31.4277306 C26.476881,32.0360846 26.6818349,32.7919862 26.6000907,33.5447306 C25.3492001,34.0091814 24.0489585,34.3279503 22.7250907,34.4947306 C24.5370907,34.1007306 25.8820907,32.8897306 26.0250907,31.4277306 L26.0260907,31.4277306 Z" id="路径" fill="url(#linearGradient-2)" fill-rule="nonzero"></path>
                    <path d="M34.4760907,27.5247306 C34.4660907,27.5347306 34.4580907,27.5517306 34.4490907,27.5607306 C33.709757,28.6072867 32.8483512,29.5620171 31.8830907,30.4047306 C30.9770907,31.2027306 29.1030907,32.2967306 29.2010907,32.1897306 C29.2190907,32.1717306 29.9460907,31.4897306 30.1880907,31.1497306 C30.3500907,30.9157306 30.4840907,30.6827306 30.5920907,30.4497306 C30.8520907,29.8667306 30.9240907,29.3097306 30.7720907,28.9517306 C30.7404442,28.5581093 30.4129751,28.2540929 30.0180907,28.2517306 L26.9050907,28.2517306 C27.1380907,27.2737306 28.8510907,26.5117306 30.9320907,26.5117306 C32.2420907,26.5117306 33.4170907,26.8167306 34.1520907,27.2827306 C34.2780907,27.3627306 34.3860907,27.4447306 34.4760907,27.5247306 L34.4760907,27.5247306 Z" id="路径" fill="url(#linearGradient-3)" fill-rule="nonzero"></path>
                    <path d="M22.7160907,34.5137306 C22.5445192,34.5531456 22.3709289,34.5831901 22.1960907,34.6037306 C21.9251918,34.6390648 21.6522842,34.6567687 21.3790907,34.6567306 C21.2630907,34.6567306 21.1370907,34.6567306 21.0200907,34.6477306 C21.4150907,34.6387306 21.8000907,34.6117306 22.1780907,34.5757306 C22.3660907,34.5497306 22.5450907,34.5317306 22.7160907,34.5137306 L22.7160907,34.5137306 Z" id="路径" fill="url(#linearGradient-4)" fill-rule="nonzero"></path>
                    <path d="M34.9960907,28.4847306 C34.9960907,29.4177306 33.6680907,30.1977306 31.8920907,30.4047306 C31.5794158,30.4411239 31.2648762,30.4591549 30.9500907,30.458738 C30.8340907,30.458738 30.7260907,30.458738 30.6100907,30.4487306 C30.8700907,29.8667306 30.9410907,29.3097306 30.7890907,28.9517306 C30.7574442,28.5581093 30.4299751,28.2540929 30.0350907,28.2517306 L26.9230907,28.2517306 C27.1560907,27.2737306 28.8690907,26.5117306 30.9500907,26.5117306 C32.2600907,26.5117306 33.4350907,26.8167306 34.1700907,27.2827306 C34.2870907,27.3547306 34.3950907,27.4357306 34.4850907,27.5157306 C34.5210907,27.5517306 34.5560907,27.5787306 34.5920907,27.6157306 C34.8430907,27.8837306 34.9960907,28.1797306 34.9960907,28.4857306 L34.9960907,28.4847306 Z" id="路径" fill="url(#linearGradient-5)" fill-rule="nonzero"></path>
                    <path d="M34.4760907,27.5247306 C34.5120907,27.5607306 34.5480907,27.5877306 34.5830907,27.6237306 C34.5380907,27.6057306 34.4930907,27.5877306 34.4490907,27.5607306 C34.3351113,27.4928543 34.2371971,27.4010811 34.1620907,27.2917306 C34.2734654,27.3599238 34.378547,27.4378983 34.4760907,27.5247306 L34.4760907,27.5247306 Z" id="路径" fill="url(#linearGradient-6)" fill-rule="nonzero"></path>
                    <path d="M37.9020907,17.1917306 C37.9020907,18.5107306 37.7050907,19.7217306 37.3640907,20.6997306 C37.2840907,20.8337306 37.1940907,20.9687306 37.0950907,21.0847306 C37.2210907,20.3047306 37.2830907,19.5067306 37.2830907,18.6897306 C37.2835124,17.1850401 37.0600663,15.6886592 36.6200907,14.2497306 C37.1760907,14.6897306 37.6150907,15.4157306 37.8570907,16.2857306 C37.8930907,16.5817306 37.9020907,16.8867306 37.9020907,17.1917306 L37.9020907,17.1917306 Z" id="路径" fill="url(#linearGradient-7)" fill-rule="nonzero"></path>
                    <path d="M38.8170907,20.6547306 C38.6740907,20.5827306 38.9970907,19.9637306 39.4370907,18.2677306 C39.4370907,18.2677306 39.9470907,16.2947306 40.7010907,14.6267306 C40.7640907,14.4917306 40.9160907,14.1507306 41.2750907,13.9717306 C41.3470907,13.9357306 41.6970907,13.7567306 41.9750907,13.9177306 C42.2710907,14.0787306 42.2890907,14.5007306 42.3070907,14.7077306 C42.3306319,15.0627299 42.252957,15.4171221 42.0830907,15.7297306 C40.9250907,17.9457306 40.7010907,18.2677306 40.7010907,18.2677306 C39.3730907,20.3137306 38.9430907,20.7257306 38.8170907,20.6547306 L38.8170907,20.6547306 Z M47.1960907,15.5587306 C47.4380907,15.7027306 47.7340907,15.8727306 47.8060907,16.1867306 C47.9850907,16.9667306 46.5590907,17.9717306 45.5090907,18.4107306 C45.3640281,18.4689914 45.2172992,18.5230143 45.0690907,18.5727306 C44.9440907,18.6177306 44.7470907,18.6897306 44.4950907,18.7427306 C43.9660907,18.8687306 43.6070907,18.8427306 43.5980907,18.9317306 C43.5810907,19.0307306 44.0290907,19.0657306 44.3080907,19.4517306 C44.3610907,19.5317306 44.5050907,19.7297306 44.4780907,19.9537306 C44.4600907,20.1237306 44.3250907,20.3757306 43.4460907,20.7437306 C42.9564527,20.9568063 42.4451213,21.1160735 41.9210907,21.2187306 C40.6920907,21.4517306 39.1760907,21.6317306 39.1580907,21.5147306 C39.1490907,21.4607306 39.4360907,21.4167306 40.2080907,21.0847306 C40.5344632,20.9462234 40.8517615,20.7872402 41.1580907,20.6087306 C41.4010907,20.4657306 41.5890907,20.3307306 41.7420907,20.2227306 C42.0560907,19.9987306 42.2440907,19.8467306 42.2980907,19.8017306 C42.4410907,19.6847306 42.6380907,19.5057306 42.8000907,19.2637306 C42.8800907,19.1377306 42.9080907,19.0747306 42.9170907,19.0117306 C42.9530907,18.8517306 42.8900907,18.7787306 42.9260907,18.6717306 C42.9790907,18.5367306 43.1320907,18.4827306 43.2040907,18.4557306 C43.7510907,18.2587306 44.5040907,17.8277306 44.8270907,17.6127306 C45.1680907,17.3887306 45.4190907,17.2087306 45.5180907,16.8777306 C45.6170907,16.5457306 45.5540907,16.0787306 45.3300907,15.9897306 C45.2580907,15.9627306 45.1410907,15.9627306 45.0880907,15.8817306 C45.0430907,15.8097306 45.0780907,15.7197306 45.0880907,15.6937306 C45.1950907,15.3977306 46.3250907,15.0567306 47.1960907,15.5587306 L47.1960907,15.5587306 Z M45.9130907,22.3767306 C45.7510907,21.9547306 45.1410907,21.8467306 44.7020907,21.7757306 C44.2890907,21.7037306 43.9750907,21.7307306 43.4910907,21.7757306 C42.9170907,21.8297306 42.4410907,21.9277306 42.0650907,22.0177306 C40.9160907,22.2957306 40.1900907,22.4657306 40.1900907,22.6817306 C40.1900907,22.8877306 41.2210907,23.0587306 43.2930907,23.3897306 C44.6830907,23.6147306 45.2930907,23.6767306 45.6710907,23.2917306 C45.8950907,23.0487306 46.0290907,22.6717306 45.9130907,22.3767306 L45.9130907,22.3767306 Z M44.8990907,22.7887306 C44.7910907,23.0227306 44.2890907,23.0047306 43.3030907,22.9237306 C41.9030907,22.7977306 41.1950907,22.7357306 41.1950907,22.6277306 C41.1950907,22.5477306 41.6430907,22.4837306 42.5400907,22.3407306 C42.5580907,22.3407306 42.9260907,22.2777306 43.4200907,22.2417306 C43.6880907,22.2237306 43.8940907,22.2147306 44.1370907,22.2327306 C44.7020907,22.2777306 44.8090907,22.4217306 44.8370907,22.4657306 C44.8990907,22.5467306 44.9530907,22.6817306 44.8990907,22.7887306 L44.8990907,22.7887306 Z" id="形状" fill="#3485FF" fill-rule="nonzero"></path>
                    <path d="M37.8760907,16.2857306 C37.8504966,15.9676352 37.8144772,15.6504648 37.7680907,15.3347306 L37.7680907,15.3257306 C37.7236511,14.5624709 37.6216951,13.8036511 37.4630907,13.0557306 C36.6110907,9.05573065 34.3500907,6.47173065 33.5700907,5.60173065 C30.1880907,1.82573065 25.9890907,0.669730647 24.3660907,0.300730647 C23.0560907,0.067730647 15.0010907,-1.23326935 7.8960907,4.24773065 C6.5340907,5.29773065 0.192090699,10.4727306 0.00409069911,18.8957306 C-0.192909301,27.9017306 6.7590907,35.0337306 13.5760907,37.4377306 C18.9400907,39.3297306 24.1160907,38.2177306 24.9960907,38.0117306 C25.9910907,37.7787306 29.1310907,36.9797306 32.0640907,34.8897306 C32.5368515,34.5594376 32.9862527,34.1969095 33.4090907,33.8047306 C34.0190907,33.2307306 35.8040907,31.5347306 36.6030907,28.7897306 C36.7360907,28.3397306 36.8070907,27.9517306 36.8530907,27.7047306 L36.8630907,27.6507306 C36.2055691,27.615247 35.5466123,27.615247 34.8890907,27.6507306 C34.8530907,27.6507306 34.8180907,27.6507306 34.7730907,27.6417306 C34.7091434,27.6310326 34.6459977,27.6159979 34.5840907,27.5967306 C34.5480907,27.5607306 34.5130907,27.5247306 34.4770907,27.4987306 C34.3796116,27.4115229 34.2745261,27.3332108 34.1630907,27.2647306 C33.4180907,26.7987306 32.2530907,26.4937306 30.9430907,26.4937306 C28.8610907,26.4937306 27.1480907,27.2557306 26.9150907,28.2337306 L30.0270907,28.2337306 C30.1080907,28.2337306 30.3500907,28.2607306 30.5390907,28.4397306 C30.6130907,28.5067306 30.6560907,28.5797306 30.6790907,28.6177306 C30.7330172,28.7155584 30.7676449,28.8228363 30.7810907,28.9337306 C30.8710907,29.6597306 30.7090907,30.1897306 30.6010907,30.4317306 C30.4640907,30.7327306 30.3010907,30.9767306 30.2090907,31.1147306 L30.1980907,31.1317306 C30.0121112,31.3874563 29.8017956,31.6245637 29.5700907,31.8397306 C29.3420907,32.0597306 29.1460907,32.2097306 28.9710907,32.3437306 L28.9010907,32.3977306 L28.8790907,32.4137306 C28.6673875,32.5728468 28.4488466,32.7226557 28.2240907,32.8627306 C27.7179258,33.1611266 27.1722234,33.3866791 26.6030907,33.5327306 C26.6125794,33.4410187 26.6179182,33.3489247 26.6190907,33.2567306 C26.6190907,32.7497306 26.5010907,32.2767306 26.2960907,31.8687306 C26.2178737,31.710271 26.1247894,31.559595 26.0180907,31.4187306 C25.8740907,32.8807306 24.5200907,34.0917306 22.7170907,34.4947306 C22.5370907,34.5217306 22.3580907,34.5397306 22.1790907,34.5577306 C21.7930907,34.5937306 21.4070907,34.6207306 21.0210907,34.6297306 C20.8240907,34.6387306 20.6270907,34.6387306 20.4310907,34.6387306 L20.4290907,34.6387306 C11.1190907,34.6387306 3.5740907,27.4887306 3.5740907,18.6717306 C3.5740907,9.85373065 11.1180907,2.70473065 20.4290907,2.70473065 C26.9590907,2.70473065 32.6190907,6.22073065 35.4190907,11.3697306 C35.4207975,11.3730438 35.4224643,11.3763774 35.4240907,11.3797306 L35.4190907,11.3797306 C35.9164986,12.2929434 36.3192585,13.2546078 36.6210907,14.2497306 C37.0610663,15.6886592 37.2845124,17.1850401 37.2840907,18.6897306 L37.2840907,18.7397306 C37.2822782,19.5221019 37.2194208,20.3031391 37.0960907,21.0757306 L37.0980907,21.0737306 L37.0960907,21.0837306 C37.1950907,20.9677306 37.2840907,20.8337306 37.3660907,20.6987306 C37.7030907,19.7287306 37.9000907,18.5307306 37.9030907,17.2257306 L37.9030907,17.1827306 C37.9030907,16.8835448 37.8942483,16.5844242 37.8770907,16.2857306 L37.8760907,16.2857306 Z" id="路径" fill="#3485FF"></path>
                    <path d="M14.9220907,12.4657306 C14.9136533,12.4236952 14.9069808,12.3813247 14.9020907,12.3387306 L15.1300907,12.7417306 C15.1285517,12.6850748 15.1275517,12.6284055 15.1270907,12.5717306 L14.9030907,12.3387306 L14.6430907,8.91173065 C14.6022174,8.30272423 14.8050965,7.70244616 15.2070455,7.24310267 C15.6089945,6.78375918 16.1770457,6.50302542 16.7860907,6.46273065 L18.5360907,6.34673065 C18.7330907,6.33273065 18.9270907,6.34373065 19.1140907,6.37873065 C19.4774511,6.36069019 19.8416684,6.38586649 20.1990907,6.45373065 C21.1470926,6.63596848 22.0119194,7.11673924 22.6670907,7.82573065 C26.5795163,7.59377955 30.1382455,10.0816198 31.2640907,13.8357306 L31.4710907,15.1997306 L31.4740907,15.2207306 L31.4800907,15.2177306 L31.5260907,15.5087306 L31.5340907,15.5317306 L31.6140907,16.0517306 L32.3680907,20.9227306 L32.3860907,21.0627306 L32.4660907,21.5687306 L32.5020907,21.8287306 L32.5020907,21.8827306 L32.5030907,21.9297306 C32.6012384,22.6323689 33.2016316,23.1555809 33.9110907,23.1567306 C34.4420907,23.1567306 34.8970907,22.8607306 35.1450907,22.4327306 L35.1570907,22.4027306 L35.2570907,22.1697306 L35.4170907,21.7927306 C35.432825,21.7549282 35.4563338,21.7208575 35.4860907,21.6927306 C35.5730512,21.6032964 35.7055944,21.5756008 35.8210907,21.6227306 L35.9200907,21.6677306 L35.9200907,21.6767306 L36.3830907,21.8697306 L37.0410907,22.1427306 C37.0460907,22.1477306 37.0510907,22.1497306 37.0550907,22.1527306 C37.0598393,22.1546547 37.0642331,22.1573586 37.0680907,22.1607306 L37.0770907,22.1707306 C37.1850907,22.2507306 37.2300907,22.3937306 37.1760907,22.5197306 L36.9740907,23.0017306 L36.9690907,23.0217306 L36.9690907,23.0317306 C36.8980907,23.2917306 36.7990907,23.5337306 36.6640907,23.7667306 C36.6600907,23.7707306 36.6580907,23.7757306 36.6560907,23.7797306 C36.6530907,23.7847306 36.6510907,23.7897306 36.6460907,23.7937306 C36.6412563,23.8009559 36.6365884,23.8082911 36.6320907,23.8157306 L36.6270907,23.8237306 L36.6240907,23.8297306 L36.6020907,23.8657306 C36.6020907,23.8697306 36.5990907,23.8717306 36.5970907,23.8737306 C36.5950907,23.8767306 36.5930907,23.8787306 36.5930907,23.8837306 C35.9830907,24.8437306 34.8610907,25.5157306 33.7230907,25.5157306 L32.9600907,25.5157306 C31.5899307,25.5117682 30.3846679,24.6093454 29.9950907,23.2957306 L29.9820907,23.2457306 C29.9730732,23.2177802 29.9653977,23.1894145 29.9590907,23.1607306 L29.9520907,23.1307306 L29.9500907,23.1307306 L29.9730907,23.2377306 C29.9640928,23.2094367 29.9564178,23.1807389 29.9500907,23.1517306 L29.9450907,23.1297306 L29.9370907,23.1297306 C29.9207983,23.0706695 29.9087674,23.0105149 29.9010907,22.9497306 L29.7210907,22.1607306 L29.7120907,22.1247306 C29.6962019,22.0751297 29.6844943,22.0242854 29.6770907,21.9727306 L29.6410907,21.8027306 L29.6410907,21.8647306 L29.6410907,21.8627306 L29.6410907,21.9007306 C29.6337967,21.8798681 29.6320732,21.8574633 29.6360907,21.8357306 L29.6370907,21.8317306 L29.6360907,21.8217306 C29.6339357,21.8121952 29.6325975,21.8024934 29.6320907,21.7927306 C29.6320907,21.7767306 29.6320907,21.7577306 29.6300907,21.7387306 L29.6230907,21.7037306 L29.6130907,21.6587306 L29.6130907,21.6317306 L29.6100907,21.6127306 L29.6050907,21.6197306 L29.5950907,21.6317306 L29.5930907,21.6337306 L29.5910907,21.6357306 L29.5860907,21.6387306 C29.5810907,21.6417306 29.5780907,21.6437306 29.5780907,21.6487306 L29.5640907,21.5777306 L29.5600907,21.5527306 L29.5510907,21.5057306 C29.4207068,20.9148341 29.0557915,20.4022924 28.5400907,20.0857306 C28.1986328,19.8876544 27.8108408,19.7834612 27.4160907,19.7837306 C27.3440907,19.7837306 27.2720907,19.7837306 27.2010907,19.7927306 C27.1650907,19.7927306 27.1290907,19.7927306 27.0930907,19.8017306 C26.9872939,19.8205043 26.8824975,19.844534 26.7790907,19.8737306 L26.6990907,19.9007306 C26.6450907,19.9187306 26.5990907,19.9357306 26.5550907,19.9537306 C26.5357569,19.9592369 26.5170025,19.9666047 26.4990907,19.9757306 C26.4679736,19.9901461 26.4372933,20.0054862 26.4070907,20.0217306 L26.3490907,20.0527306 L26.3130907,20.0757306 L26.2770907,20.0977306 L26.1970907,20.1517306 C26.1870907,20.1517306 26.1780907,20.1607306 26.1690907,20.1697306 C26.142091,20.1792897 26.1175144,20.1946501 26.0970907,20.2147306 C26.0831986,20.2243222 26.0698451,20.2346712 26.0570907,20.2457306 L26.0170907,20.2767306 C25.9883126,20.2949012 25.9615018,20.3160147 25.9370907,20.3397306 C25.9090907,20.3577306 25.8820907,20.3847306 25.8640907,20.4027306 L25.8010907,20.4657306 L25.7790907,20.4927306 C25.7724154,20.5022474 25.765063,20.5112707 25.7570907,20.5197306 C25.7570907,20.5287306 25.7470907,20.5377306 25.7390907,20.5467306 C25.7250264,20.5595796 25.7129002,20.5744005 25.7030907,20.5907306 C25.6933183,20.6007209 25.684294,20.6114164 25.6760907,20.6227306 C25.6676597,20.6335461 25.6586464,20.6438947 25.6490907,20.6537306 C25.6289417,20.6760411 25.610867,20.7001407 25.5950907,20.7257306 C25.5721021,20.7521921 25.5519893,20.7810204 25.5350907,20.8117306 C25.5280421,20.8293962 25.5178811,20.8456538 25.5050907,20.8597306 C25.4938963,20.8884771 25.4791124,20.9156929 25.4610907,20.9407306 C25.4510907,20.9547306 25.4450907,20.9677306 25.4380907,20.9807306 C25.4321387,20.9947784 25.4247671,21.0081813 25.4160907,21.0207306 C25.415625,21.0257429 25.4139055,21.0305574 25.4110907,21.0347306 C25.4090907,21.0397306 25.4070907,21.0447306 25.4070907,21.0487306 C25.4019281,21.0624252 25.3959164,21.0757845 25.3890907,21.0887306 C25.3820907,21.1027306 25.3750907,21.1157306 25.3710907,21.1287306 C25.3663035,21.1458093 25.3602878,21.1625195 25.3530907,21.1787306 C25.3457359,21.194878 25.3397158,21.2116006 25.3350907,21.2287306 L25.3350907,21.2367306 L25.3220907,21.2817306 L25.3080907,21.3267306 L25.3080907,21.3357306 L25.2950907,21.3857306 C25.2900907,21.4007306 25.2850907,21.4157306 25.2810907,21.4347306 C25.2710077,21.4670892 25.2620027,21.4997739 25.2540907,21.5327306 L25.2540907,21.5427306 C25.2501801,21.5588835 25.2471754,21.5752424 25.2450907,21.5917306 C25.2430907,21.6067306 25.2410907,21.6217306 25.2360907,21.6407306 C25.2270907,21.6767306 25.2180907,21.7127306 25.2180907,21.7487306 C25.2178193,21.7664614 25.2164836,21.78416 25.2140907,21.8017306 C25.2112734,21.8196055 25.2096033,21.8376424 25.2090907,21.8557306 C25.2082698,21.8590313 25.2076024,21.8623682 25.2070907,21.8657306 L25.2050907,21.8737306 L25.2030907,21.8827306 C25.2000907,21.9007306 25.2000907,21.9187306 25.2000907,21.9367306 L25.2000907,25.7937306 L25.1740907,25.7937306 L25.1740907,27.1837306 C25.170262,27.940426 24.5577861,28.552902 23.8010907,28.5567306 L20.3030907,28.5567306 C19.5463309,28.5539919 18.9333808,27.9414882 18.9300907,27.1847306 L18.9300907,25.4467306 C18.7770837,24.2807479 17.7463545,23.4330191 16.572764,23.5079348 C15.3991735,23.5828504 14.4845999,24.5547567 14.4810907,25.7307306 L14.4810907,25.7937306 L14.4540907,25.7937306 L14.4540907,27.1937306 C14.4554256,27.5580153 14.3113047,27.9077649 14.0537148,28.1653548 C13.796125,28.4229446 13.4463753,28.5670655 13.0820907,28.5657398 L9.5830907,28.5657398 C8.82633311,28.5624405 8.21382943,27.9494904 8.2110907,27.1927306 L8.2110907,18.6807306 C8.2110907,18.6207306 8.2150907,18.5607306 8.2220907,18.5027306 C8.3090907,15.5597306 10.5470907,13.1467306 13.4140907,12.7687306 C13.4140907,12.8317306 13.4230907,12.9037306 13.4320907,12.9667306 C13.5150907,13.4347306 13.6330907,13.8817306 13.7520907,14.3307306 C13.8240907,14.6037306 13.8960907,14.8767306 13.9610907,15.1547306 C14.0930907,15.7197306 14.2670907,16.1997306 14.4580907,16.7287306 L14.5880907,17.0927306 C14.8280907,17.7777306 15.0810907,18.2717306 15.3230907,18.7437306 L15.4140907,18.9227306 C15.5908864,19.2938857 15.7947709,19.6515192 16.0240907,19.9927306 L16.0440907,20.0227306 L16.0780907,20.0707306 L16.0870907,20.0797306 C16.1500907,20.1787306 16.2210907,20.2677306 16.2930907,20.3577306 L16.3430907,20.4197306 C16.3810907,20.4617306 16.4210907,20.5037306 16.4630907,20.5467306 C16.7510907,20.8247306 17.2980907,21.2907306 18.1410907,21.5507306 C18.4470907,21.6447306 18.7520907,21.6567306 19.0580907,21.6287306 L22.3360907,20.0277306 L18.9860907,16.5627306 C18.7700907,17.2307306 18.4380907,17.7027306 18.0210907,17.8737306 L19.1810907,19.9337306 C19.0292583,20.0205444 18.8557857,20.0621778 18.6810907,20.0537306 C18.4833105,20.0392365 18.2916032,19.9789856 18.1210907,19.8777306 L18.1050907,19.8827306 C18.0510907,19.8557306 17.9970907,19.8287306 17.9520907,19.7927306 C17.7254891,19.6416415 17.5279948,19.4509222 17.3690907,19.2297306 C16.7300907,18.4877306 16.1320907,17.2967306 15.7290907,15.8767306 L15.7250907,15.8617306 C15.7170189,15.8327505 15.7090189,15.8037504 15.7010907,15.7747306 C15.692287,15.7507804 15.6836201,15.72678 15.6750907,15.7027306 C15.668708,15.6967829 15.6623745,15.6907827 15.6560907,15.6847306 C15.6480202,15.6507473 15.6400202,15.6167472 15.6320907,15.5827306 C15.472604,15.1187144 15.3512021,14.6424711 15.2690907,14.1587306 C15.1100907,13.6137306 15.0160907,13.0617306 14.9290907,12.5087306 L14.9220907,12.4657306 L14.9220907,12.4657306 Z M26.5290907,14.8197306 C26.3963768,14.5988598 26.3278141,14.3453858 26.3310907,14.0877306 C26.328572,13.4016348 26.8146695,12.8108641 27.4884071,12.6812051 C28.1621448,12.5515461 28.8327859,12.9197055 29.0850907,13.5577306 C29.1560907,13.7287306 29.1920907,13.9077306 29.1920907,14.1057306 L29.1920907,14.1627306 C28.9301793,13.739896 28.4694583,13.4812125 27.9720907,13.4777306 C27.5720907,13.4777306 27.2130907,13.6397306 26.9540907,13.8997306 C26.7059958,14.1449228 26.5553331,14.4718326 26.5300907,14.8197306 L26.5290907,14.8197306 Z" id="形状" fill="url(#linearGradient-8)"></path>
                </g>
            </g>
        </g>
    </g>
</svg>